<?xml version="1.0" encoding="UTF-8"?>
<!DOCTYPE svg PUBLIC "-//W3C//DTD SVG 1.1//EN" "http://www.w3.org/Graphics/SVG/1.1/DTD/svg11.dtd">
<svg xmlns="http://www.w3.org/2000/svg" version="1.1" width="512px" height="135px" style="shape-rendering:geometricPrecision; text-rendering:geometricPrecision; image-rendering:optimizeQuality; fill-rule:evenodd; clip-rule:evenodd" xmlns:xlink="http://www.w3.org/1999/xlink">
<g><path style="opacity:0.992" fill="#fa0b00" d="M -0.5,-0.5 C 18.5,-0.5 37.5,-0.5 56.5,-0.5C 37.5598,44.3811 18.8932,89.3811 0.5,134.5C 0.166667,134.5 -0.166667,134.5 -0.5,134.5C -0.5,89.5 -0.5,44.5 -0.5,-0.5 Z"/></g>
<g><path style="opacity:0.972" fill="#fa0b00" d="M 95.5,-0.5 C 114.5,-0.5 133.5,-0.5 152.5,-0.5C 152.5,44.5 152.5,89.5 152.5,134.5C 152.167,134.5 151.833,134.5 151.5,134.5C 132.441,89.6548 113.774,44.6548 95.5,-0.5 Z"/></g>
<g><path style="opacity:0.98" fill="#fa0b00" d="M 306.5,23.5 C 311.5,23.5 316.5,23.5 321.5,23.5C 321.833,49.8418 321.5,76.1751 320.5,102.5C 306.497,108.322 292.83,107.822 279.5,101C 271.028,92.9648 267.861,83.1315 270,71.5C 272.833,58.6667 280.667,50.8333 293.5,48C 297.821,47.501 302.154,47.3343 306.5,47.5C 306.5,39.5 306.5,31.5 306.5,23.5 Z M 298.5,59.5 C 301.119,59.2317 303.619,59.565 306,60.5C 306.5,71.495 306.667,82.495 306.5,93.5C 287.676,94.2069 281.176,85.5402 287,67.5C 289.913,63.4064 293.746,60.7398 298.5,59.5 Z"/></g>
<g><path style="opacity:0.981" fill="#fa0b00" d="M 400.5,23.5 C 405.167,23.5 409.833,23.5 414.5,23.5C 414.169,31.8599 414.502,40.1932 415.5,48.5C 440.385,44.0106 452.551,54.3439 452,79.5C 447.973,97.9413 436.473,106.941 417.5,106.5C 411.736,106.533 406.07,105.866 400.5,104.5C 400.5,77.5 400.5,50.5 400.5,23.5 Z M 419.5,59.5 C 432.518,59.8668 438.352,66.5334 437,79.5C 433.731,90.931 426.231,95.5977 414.5,93.5C 414.333,82.8281 414.5,72.1615 415,61.5C 416.622,60.9011 418.122,60.2344 419.5,59.5 Z"/></g>
<g><path style="opacity:0.97" fill="#fa0b00" d="M 221.5,29.5 C 227.5,29.5 233.5,29.5 239.5,29.5C 248.37,54.7759 257.036,80.1093 265.5,105.5C 260.489,105.666 255.489,105.499 250.5,105C 248.27,98.8112 245.936,92.6445 243.5,86.5C 234.853,85.3348 226.186,85.1681 217.5,86C 215.167,92.3333 212.833,98.6667 210.5,105C 205.845,105.499 201.179,105.666 196.5,105.5C 204.84,80.1458 213.174,54.8125 221.5,29.5 Z M 229.5,44.5 C 233.184,53.2026 236.517,62.2026 239.5,71.5C 233.537,72.4959 227.537,72.8293 221.5,72.5C 224.369,63.2251 227.036,53.8918 229.5,44.5 Z"/></g>
<g><path style="opacity:0.97" fill="#fa0b00" d="M 353.5,47.5 C 375.977,44.7163 387.644,54.5496 388.5,77C 388.206,95.46 378.872,105.293 360.5,106.5C 342.749,104.923 333.416,95.0898 332.5,77C 332.835,62.1993 339.835,52.366 353.5,47.5 Z M 357.5,59.5 C 365.583,59.0862 370.75,62.7528 373,70.5C 373.839,75.9212 373.506,81.2545 372,86.5C 365.633,95.6912 358.633,96.3579 351,88.5C 346.932,81.3129 346.598,73.9795 350,66.5C 351.742,63.2543 354.242,60.921 357.5,59.5 Z"/></g>
<g><path style="opacity:0.971" fill="#fa0b00" d="M 511.5,64.5 C 511.5,69.5 511.5,74.5 511.5,79.5C 499.561,80.1475 487.561,80.8142 475.5,81.5C 476.871,87.0375 480.204,90.8709 485.5,93C 492.949,93.8479 500.282,93.3479 507.5,91.5C 508.055,95.9971 507.389,100.164 505.5,104C 495.486,107.296 485.486,107.296 475.5,104C 463.816,96.792 458.983,86.292 461,72.5C 464.638,53.4202 476.138,45.2536 495.5,48C 503.789,50.7863 509.122,56.2863 511.5,64.5 Z M 482.5,59.5 C 491.201,57.6641 496.201,60.9974 497.5,69.5C 490.159,69.6663 482.826,69.4997 475.5,69C 477.013,65.1034 479.346,61.9367 482.5,59.5 Z"/></g>
<g><path style="opacity:0.983" fill="#fa0b00" d="M 112.5,134.5 C 104.167,134.5 95.8333,134.5 87.5,134.5C 83.7713,125.647 80.438,116.647 77.5,107.5C 68.4754,107.832 59.4754,107.498 50.5,106.5C 58.7423,87.0189 67.2423,67.6856 76,48.5C 88.2713,77.1549 100.438,105.822 112.5,134.5 Z"/></g>
</svg>
